<svg aria-hidden="true" style="width:0;height:0;position:absolute;overflow:hidden" xmlns="http://www.w3.org/2000/svg"><defs><symbol id="icon-close" viewBox="0 0 32 32"><path fill="#055545" style="fill:var(--color1,#055545)" d="m25.143 8.983-2.126-2.126-7.016 7.016-7.016-7.016-2.126 2.126L13.875 16l-7.016 7.016 2.126 2.126 7.017-7.016 7.016 7.016 2.126-2.126L18.128 16l7.016-7.017z"/></symbol><symbol id="icon-menu" viewBox="0 0 32 32"><path d="M28 21.486H4c-.8 0-1.371-.686-1.371-1.371S3.315 18.744 4 18.744h24c.8 0 1.371.686 1.371 1.371s-.686 1.371-1.371 1.371zm0-8H4c-.8 0-1.371-.686-1.371-1.371S3.315 10.744 4 10.744h24c.8 0 1.371.686 1.371 1.371s-.686 1.371-1.371 1.371z"/></symbol><symbol id="icon-facebook" viewBox="0 0 32 32"><path d="M32 16.04C32 7.186 24.832 0 16 0S0 7.186 0 16.04c0 7.764 5.504 14.228 12.8 15.719V20.852H9.6V16.04h3.2v-4.01c0-3.096 2.512-5.614 5.6-5.614h4v4.812h-3.2c-.88 0-1.6.722-1.6 1.604v3.208h4.8v4.812h-4.8V32c8.08-.802 14.4-7.635 14.4-15.96z"/></symbol><symbol id="icon-instagram" viewBox="0 0 32 32"><path d="M23.384 0H8.615A8.625 8.625 0 0 0-.001 8.615v14.769a8.623 8.623 0 0 0 8.616 8.615h14.769A8.623 8.623 0 0 0 32 23.384V8.615A8.627 8.627 0 0 0 23.384 0zM16 23.385a7.382 7.382 0 0 1-6.823-4.559A7.385 7.385 0 1 1 23.384 16a7.388 7.388 0 0 1-7.385 7.384zm9.231-14.77a1.847 1.847 0 1 1 .002-3.695 1.847 1.847 0 0 1-.003 3.695zM20.923 16a4.92 4.92 0 0 1-3.039 4.548 4.92 4.92 0 0 1-5.366-1.067 4.93 4.93 0 0 1-1.067-5.366 4.931 4.931 0 0 1 4.548-3.039 4.925 4.925 0 0 1 4.923 4.923z"/></symbol><symbol id="icon-youtube" viewBox="0 0 32 32"><path d="m18.672 15.722-3.743-1.747c-.327-.152-.595.018-.595.38v3.29c0 .362.268.532.595.38l3.741-1.747c.328-.153.328-.403.002-.557zM16 0C7.163 0 0 7.163 0 16s7.163 16 16 16 16-7.163 16-16S24.837 0 16 0zm0 22.5c-8.19 0-8.333-.738-8.333-6.5S7.81 9.5 16 9.5s8.333.738 8.333 6.5-.143 6.5-8.333 6.5z"/></symbol><symbol id="icon-arrow-up" viewBox="0 0 53 32"><path d="M29.19 20.979a3.558 3.558 0 0 1-5.048 0L7.858 4.659A3.558 3.558 0 1 0 2.81 9.673l16.32 16.32a10.67 10.67 0 0 0 15.076 0l16.32-16.32a3.555 3.555 0 0 0 .767-3.854 3.562 3.562 0 0 0-1.924-1.937 3.563 3.563 0 0 0-2.734 0c-.433.18-.827.445-1.157.778L29.194 20.98z"/></symbol></defs></svg>